<svg viewBox="0 0 800 1000" xmlns="http://www.w3.org/2000/svg">
  <defs>
    <radialGradient id="ge2bg" cx="50%" cy="32%" r="80%">
      <stop offset="0%" stop-color="#eeeae1"/>
      <stop offset="100%" stop-color="#e7e2d5"/>
    </radialGradient>
    <linearGradient id="ge2sil" x1="0%" y1="0%" x2="100%" y2="0%">
      <stop offset="0%" stop-color="#141412"/>
      <stop offset="50%" stop-color="#201f1d"/>
      <stop offset="100%" stop-color="#141412"/>
    </linearGradient>
  </defs>
  <rect width="800" height="1000" fill="url(#ge2bg)"/>
  <line x1="75" y1="800" x2="267" y2="800" stroke="#b7b3a9" stroke-width="1" opacity="0.03"/>
<line x1="756" y1="190" x2="884" y2="190" stroke="#b7b3a9" stroke-width="1" opacity="0.03"/>
<line x1="715" y1="557" x2="913" y2="557" stroke="#b7b3a9" stroke-width="1" opacity="0.03"/>
<line x1="383" y1="314" x2="598" y2="314" stroke="#b7b3a9" stroke-width="1" opacity="0.03"/>
<line x1="613" y1="132" x2="832" y2="132" stroke="#b7b3a9" stroke-width="1" opacity="0.03"/>
<line x1="711" y1="351" x2="810" y2="351" stroke="#b7b3a9" stroke-width="1" opacity="0.03"/>
<line x1="389" y1="146" x2="591" y2="146" stroke="#b7b3a9" stroke-width="1" opacity="0.03"/>
<line x1="27" y1="708" x2="123" y2="708" stroke="#b7b3a9" stroke-width="1" opacity="0.03"/>
<line x1="466" y1="828" x2="509" y2="828" stroke="#b7b3a9" stroke-width="1" opacity="0.03"/>
<line x1="457" y1="70" x2="572" y2="70" stroke="#b7b3a9" stroke-width="1" opacity="0.03"/>
<line x1="93" y1="517" x2="214" y2="517" stroke="#b7b3a9" stroke-width="1" opacity="0.03"/>
<line x1="743" y1="18" x2="889" y2="18" stroke="#b7b3a9" stroke-width="1" opacity="0.03"/>
<line x1="260" y1="275" x2="388" y2="275" stroke="#b7b3a9" stroke-width="1" opacity="0.03"/>
<line x1="379" y1="225" x2="514" y2="225" stroke="#b7b3a9" stroke-width="1" opacity="0.03"/>
<line x1="499" y1="650" x2="602" y2="650" stroke="#b7b3a9" stroke-width="1" opacity="0.03"/>
<line x1="358" y1="607" x2="525" y2="607" stroke="#b7b3a9" stroke-width="1" opacity="0.03"/>
<line x1="713" y1="189" x2="829" y2="189" stroke="#b7b3a9" stroke-width="1" opacity="0.03"/>
<line x1="417" y1="927" x2="603" y2="927" stroke="#b7b3a9" stroke-width="1" opacity="0.03"/>
<line x1="343" y1="157" x2="499" y2="157" stroke="#b7b3a9" stroke-width="1" opacity="0.03"/>
<line x1="221" y1="42" x2="275" y2="42" stroke="#b7b3a9" stroke-width="1" opacity="0.03"/>
<line x1="337" y1="428" x2="392" y2="428" stroke="#b7b3a9" stroke-width="1" opacity="0.03"/>
<line x1="386" y1="74" x2="463" y2="74" stroke="#b7b3a9" stroke-width="1" opacity="0.03"/>
<line x1="305" y1="62" x2="458" y2="62" stroke="#b7b3a9" stroke-width="1" opacity="0.03"/>
<line x1="500" y1="42" x2="709" y2="42" stroke="#b7b3a9" stroke-width="1" opacity="0.03"/>
<line x1="553" y1="499" x2="734" y2="499" stroke="#b7b3a9" stroke-width="1" opacity="0.03"/>
<line x1="401" y1="239" x2="471" y2="239" stroke="#b7b3a9" stroke-width="1" opacity="0.03"/>
  <ellipse cx="400" cy="945" rx="150" ry="16" fill="#0c0c0b" opacity="0.12"/>
  <g transform="rotate(-8 400 560)">
    <!-- one continuous silhouette: head, neck, oversized tee, legs -->
    <path d="M 400 120
             C 432 120 456 146 456 180
             C 456 206 444 226 426 238
             C 470 250 512 276 552 330
             C 610 408 636 452 650 486
             C 660 510 652 528 630 538
             L 580 560
             C 560 520 528 466 496 424
             L 520 860
             C 460 886 340 886 280 860
             L 304 424
             C 272 466 240 520 220 560
             L 170 538
             C 148 528 140 510 150 486
             C 164 452 190 408 248 330
             C 288 276 330 250 374 238
             C 356 226 344 206 344 180
             C 344 146 368 120 400 120 Z"
          fill="url(#ge2sil)"/>
    <!-- legs -->
    <rect x="342" y="856" width="46" height="126" rx="6" fill="#141412"/>
    <rect x="412" y="856" width="46" height="126" rx="6" fill="#141412"/>
    <rect x="332" y="972" width="66" height="14" rx="7" fill="#0c0c0b"/>
    <rect x="402" y="972" width="66" height="14" rx="7" fill="#0c0c0b"/>
  </g>
  
</svg>
