<svg viewBox="0 0 800 1000" xmlns="http://www.w3.org/2000/svg">
  <defs>
    <radialGradient id="ge1bg" cx="50%" cy="32%" r="80%">
      <stop offset="0%" stop-color="#e8e4d9"/>
      <stop offset="100%" stop-color="#dfd9c9"/>
    </radialGradient>
    <linearGradient id="ge1sil" x1="0%" y1="0%" x2="100%" y2="0%">
      <stop offset="0%" stop-color="#070707"/>
      <stop offset="50%" stop-color="#0c0c0b"/>
      <stop offset="100%" stop-color="#070707"/>
    </linearGradient>
  </defs>
  <rect width="800" height="1000" fill="url(#ge1bg)"/>
  <line x1="331" y1="520" x2="529" y2="520" stroke="#b7b3a9" stroke-width="1" opacity="0.03"/>
<line x1="8" y1="271" x2="87" y2="271" stroke="#b7b3a9" stroke-width="1" opacity="0.03"/>
<line x1="774" y1="204" x2="881" y2="204" stroke="#b7b3a9" stroke-width="1" opacity="0.03"/>
<line x1="88" y1="204" x2="259" y2="204" stroke="#b7b3a9" stroke-width="1" opacity="0.03"/>
<line x1="56" y1="608" x2="145" y2="608" stroke="#b7b3a9" stroke-width="1" opacity="0.03"/>
<line x1="516" y1="24" x2="733" y2="24" stroke="#b7b3a9" stroke-width="1" opacity="0.03"/>
<line x1="539" y1="374" x2="696" y2="374" stroke="#b7b3a9" stroke-width="1" opacity="0.03"/>
<line x1="778" y1="133" x2="907" y2="133" stroke="#b7b3a9" stroke-width="1" opacity="0.03"/>
<line x1="662" y1="170" x2="711" y2="170" stroke="#b7b3a9" stroke-width="1" opacity="0.03"/>
<line x1="356" y1="621" x2="403" y2="621" stroke="#b7b3a9" stroke-width="1" opacity="0.03"/>
<line x1="397" y1="663" x2="586" y2="663" stroke="#b7b3a9" stroke-width="1" opacity="0.03"/>
<line x1="194" y1="988" x2="272" y2="988" stroke="#b7b3a9" stroke-width="1" opacity="0.03"/>
<line x1="329" y1="909" x2="480" y2="909" stroke="#b7b3a9" stroke-width="1" opacity="0.03"/>
<line x1="456" y1="968" x2="520" y2="968" stroke="#b7b3a9" stroke-width="1" opacity="0.03"/>
<line x1="679" y1="21" x2="782" y2="21" stroke="#b7b3a9" stroke-width="1" opacity="0.03"/>
<line x1="618" y1="151" x2="697" y2="151" stroke="#b7b3a9" stroke-width="1" opacity="0.03"/>
<line x1="252" y1="827" x2="423" y2="827" stroke="#b7b3a9" stroke-width="1" opacity="0.03"/>
<line x1="363" y1="305" x2="551" y2="305" stroke="#b7b3a9" stroke-width="1" opacity="0.03"/>
<line x1="17" y1="257" x2="146" y2="257" stroke="#b7b3a9" stroke-width="1" opacity="0.03"/>
<line x1="213" y1="402" x2="260" y2="402" stroke="#b7b3a9" stroke-width="1" opacity="0.03"/>
<line x1="70" y1="99" x2="173" y2="99" stroke="#b7b3a9" stroke-width="1" opacity="0.03"/>
<line x1="100" y1="302" x2="175" y2="302" stroke="#b7b3a9" stroke-width="1" opacity="0.03"/>
<line x1="425" y1="489" x2="591" y2="489" stroke="#b7b3a9" stroke-width="1" opacity="0.03"/>
<line x1="789" y1="579" x2="981" y2="579" stroke="#b7b3a9" stroke-width="1" opacity="0.03"/>
<line x1="366" y1="302" x2="430" y2="302" stroke="#b7b3a9" stroke-width="1" opacity="0.03"/>
<line x1="209" y1="310" x2="408" y2="310" stroke="#b7b3a9" stroke-width="1" opacity="0.03"/>
  <ellipse cx="400" cy="945" rx="150" ry="16" fill="#0c0c0b" opacity="0.12"/>
  <g transform="rotate(4 400 560)">
    <!-- one continuous silhouette: head, neck, oversized tee, legs -->
    <path d="M 400 120
             C 432 120 456 146 456 180
             C 456 206 444 226 426 238
             C 470 250 512 276 552 330
             C 610 408 636 452 650 486
             C 660 510 652 528 630 538
             L 580 560
             C 560 520 528 466 496 424
             L 520 860
             C 460 886 340 886 280 860
             L 304 424
             C 272 466 240 520 220 560
             L 170 538
             C 148 528 140 510 150 486
             C 164 452 190 408 248 330
             C 288 276 330 250 374 238
             C 356 226 344 206 344 180
             C 344 146 368 120 400 120 Z"
          fill="url(#ge1sil)"/>
    <!-- legs -->
    <rect x="342" y="856" width="46" height="126" rx="6" fill="#070707"/>
    <rect x="412" y="856" width="46" height="126" rx="6" fill="#070707"/>
    <rect x="332" y="972" width="66" height="14" rx="7" fill="#0c0c0b"/>
    <rect x="402" y="972" width="66" height="14" rx="7" fill="#0c0c0b"/>
  </g>
  
</svg>
