<svg viewBox="0 0 800 1000" xmlns="http://www.w3.org/2000/svg">
  <defs>
    <radialGradient id="gf4bg" cx="50%" cy="32%" r="80%">
      <stop offset="0%" stop-color="#f5f3ef"/>
      <stop offset="100%" stop-color="#f1efe9"/>
    </radialGradient>
    <linearGradient id="gf4sil" x1="0%" y1="0%" x2="100%" y2="0%">
      <stop offset="0%" stop-color="#373531"/>
      <stop offset="50%" stop-color="#55534c"/>
      <stop offset="100%" stop-color="#373531"/>
    </linearGradient>
  </defs>
  <rect width="800" height="1000" fill="url(#gf4bg)"/>
  <line x1="749" y1="290" x2="798" y2="290" stroke="#b7b3a9" stroke-width="1" opacity="0.03"/>
<line x1="500" y1="4" x2="673" y2="4" stroke="#b7b3a9" stroke-width="1" opacity="0.03"/>
<line x1="677" y1="326" x2="767" y2="326" stroke="#b7b3a9" stroke-width="1" opacity="0.03"/>
<line x1="471" y1="510" x2="652" y2="510" stroke="#b7b3a9" stroke-width="1" opacity="0.03"/>
<line x1="772" y1="757" x2="905" y2="757" stroke="#b7b3a9" stroke-width="1" opacity="0.03"/>
<line x1="623" y1="153" x2="802" y2="153" stroke="#b7b3a9" stroke-width="1" opacity="0.03"/>
<line x1="774" y1="734" x2="880" y2="734" stroke="#b7b3a9" stroke-width="1" opacity="0.03"/>
<line x1="538" y1="478" x2="680" y2="478" stroke="#b7b3a9" stroke-width="1" opacity="0.03"/>
<line x1="743" y1="338" x2="937" y2="338" stroke="#b7b3a9" stroke-width="1" opacity="0.03"/>
<line x1="224" y1="128" x2="433" y2="128" stroke="#b7b3a9" stroke-width="1" opacity="0.03"/>
<line x1="484" y1="44" x2="655" y2="44" stroke="#b7b3a9" stroke-width="1" opacity="0.03"/>
<line x1="45" y1="152" x2="96" y2="152" stroke="#b7b3a9" stroke-width="1" opacity="0.03"/>
<line x1="511" y1="541" x2="726" y2="541" stroke="#b7b3a9" stroke-width="1" opacity="0.03"/>
<line x1="298" y1="548" x2="365" y2="548" stroke="#b7b3a9" stroke-width="1" opacity="0.03"/>
<line x1="12" y1="247" x2="103" y2="247" stroke="#b7b3a9" stroke-width="1" opacity="0.03"/>
<line x1="432" y1="138" x2="546" y2="138" stroke="#b7b3a9" stroke-width="1" opacity="0.03"/>
<line x1="720" y1="115" x2="829" y2="115" stroke="#b7b3a9" stroke-width="1" opacity="0.03"/>
<line x1="123" y1="928" x2="189" y2="928" stroke="#b7b3a9" stroke-width="1" opacity="0.03"/>
<line x1="557" y1="75" x2="716" y2="75" stroke="#b7b3a9" stroke-width="1" opacity="0.03"/>
<line x1="565" y1="30" x2="642" y2="30" stroke="#b7b3a9" stroke-width="1" opacity="0.03"/>
<line x1="780" y1="793" x2="943" y2="793" stroke="#b7b3a9" stroke-width="1" opacity="0.03"/>
<line x1="25" y1="728" x2="219" y2="728" stroke="#b7b3a9" stroke-width="1" opacity="0.03"/>
<line x1="644" y1="667" x2="718" y2="667" stroke="#b7b3a9" stroke-width="1" opacity="0.03"/>
<line x1="561" y1="609" x2="758" y2="609" stroke="#b7b3a9" stroke-width="1" opacity="0.03"/>
<line x1="194" y1="161" x2="301" y2="161" stroke="#b7b3a9" stroke-width="1" opacity="0.03"/>
<line x1="189" y1="326" x2="323" y2="326" stroke="#b7b3a9" stroke-width="1" opacity="0.03"/>
  <ellipse cx="400" cy="945" rx="150" ry="16" fill="#0c0c0b" opacity="0.12"/>
  <g transform="rotate(0 400 560)">
    <!-- one continuous silhouette: head, neck, oversized tee, legs -->
    <path d="M 400 120
             C 432 120 456 146 456 180
             C 456 206 444 226 426 238
             C 470 250 512 276 552 330
             C 610 408 636 452 650 486
             C 660 510 652 528 630 538
             L 580 560
             C 560 520 528 466 496 424
             L 520 860
             C 460 886 340 886 280 860
             L 304 424
             C 272 466 240 520 220 560
             L 170 538
             C 148 528 140 510 150 486
             C 164 452 190 408 248 330
             C 288 276 330 250 374 238
             C 356 226 344 206 344 180
             C 344 146 368 120 400 120 Z"
          fill="url(#gf4sil)"/>
    <!-- legs -->
    <rect x="342" y="856" width="46" height="126" rx="6" fill="#373531"/>
    <rect x="412" y="856" width="46" height="126" rx="6" fill="#373531"/>
    <rect x="332" y="972" width="66" height="14" rx="7" fill="#0c0c0b"/>
    <rect x="402" y="972" width="66" height="14" rx="7" fill="#0c0c0b"/>
  </g>
  <text x="60" y="940" font-family="Helvetica, Arial, sans-serif" font-size="15" letter-spacing="5" fill="#55534c" opacity="0.75">STATEMENT</text>
</svg>
