<svg viewBox="0 0 800 1000" xmlns="http://www.w3.org/2000/svg">
  <defs>
    <radialGradient id="gc1bg" cx="50%" cy="38%" r="75%">
      <stop offset="0%" stop-color="#f5f4f0"/>
      <stop offset="100%" stop-color="#f1efe9"/>
    </radialGradient>
    <linearGradient id="gc1body" x1="0%" y1="0%" x2="100%" y2="0%">
      <stop offset="0%" stop-color="#9b9689"/>
      <stop offset="18%" stop-color="#ded7c4"/>
      <stop offset="46%" stop-color="#e0dac8"/>
      <stop offset="60%" stop-color="#ded7c4"/>
      <stop offset="100%" stop-color="#9b9689"/>
    </linearGradient>
    <linearGradient id="gc1sleeveL" x1="100%" y1="0%" x2="0%" y2="100%">
      <stop offset="0%" stop-color="#e0dac8"/>
      <stop offset="100%" stop-color="#9b9689"/>
    </linearGradient>
    <linearGradient id="gc1sleeveR" x1="0%" y1="0%" x2="100%" y2="100%">
      <stop offset="0%" stop-color="#e0dac8"/>
      <stop offset="100%" stop-color="#9b9689"/>
    </linearGradient>
  </defs>
  <rect width="800" height="1000" fill="url(#gc1bg)"/>
  <line x1="12" y1="480" x2="80" y2="480" stroke="#b7b3a9" stroke-width="1" opacity="0.03"/>
<line x1="782" y1="402" x2="858" y2="402" stroke="#b7b3a9" stroke-width="1" opacity="0.03"/>
<line x1="700" y1="44" x2="775" y2="44" stroke="#b7b3a9" stroke-width="1" opacity="0.03"/>
<line x1="115" y1="548" x2="214" y2="548" stroke="#b7b3a9" stroke-width="1" opacity="0.03"/>
<line x1="728" y1="775" x2="803" y2="775" stroke="#b7b3a9" stroke-width="1" opacity="0.03"/>
<line x1="150" y1="758" x2="198" y2="758" stroke="#b7b3a9" stroke-width="1" opacity="0.03"/>
<line x1="678" y1="62" x2="752" y2="62" stroke="#b7b3a9" stroke-width="1" opacity="0.03"/>
<line x1="236" y1="548" x2="390" y2="548" stroke="#b7b3a9" stroke-width="1" opacity="0.03"/>
<line x1="538" y1="422" x2="630" y2="422" stroke="#b7b3a9" stroke-width="1" opacity="0.03"/>
<line x1="607" y1="95" x2="677" y2="95" stroke="#b7b3a9" stroke-width="1" opacity="0.03"/>
<line x1="20" y1="788" x2="163" y2="788" stroke="#b7b3a9" stroke-width="1" opacity="0.03"/>
<line x1="349" y1="203" x2="441" y2="203" stroke="#b7b3a9" stroke-width="1" opacity="0.03"/>
<line x1="338" y1="401" x2="471" y2="401" stroke="#b7b3a9" stroke-width="1" opacity="0.03"/>
<line x1="611" y1="978" x2="714" y2="978" stroke="#b7b3a9" stroke-width="1" opacity="0.03"/>
<line x1="215" y1="741" x2="310" y2="741" stroke="#b7b3a9" stroke-width="1" opacity="0.03"/>
<line x1="426" y1="598" x2="635" y2="598" stroke="#b7b3a9" stroke-width="1" opacity="0.03"/>
<line x1="560" y1="61" x2="613" y2="61" stroke="#b7b3a9" stroke-width="1" opacity="0.03"/>
<line x1="184" y1="364" x2="258" y2="364" stroke="#b7b3a9" stroke-width="1" opacity="0.03"/>
<line x1="208" y1="151" x2="344" y2="151" stroke="#b7b3a9" stroke-width="1" opacity="0.03"/>
<line x1="31" y1="88" x2="206" y2="88" stroke="#b7b3a9" stroke-width="1" opacity="0.03"/>
<line x1="449" y1="666" x2="544" y2="666" stroke="#b7b3a9" stroke-width="1" opacity="0.03"/>
<line x1="212" y1="815" x2="362" y2="815" stroke="#b7b3a9" stroke-width="1" opacity="0.03"/>
<line x1="747" y1="376" x2="836" y2="376" stroke="#b7b3a9" stroke-width="1" opacity="0.03"/>
<line x1="338" y1="656" x2="434" y2="656" stroke="#b7b3a9" stroke-width="1" opacity="0.03"/>
<line x1="493" y1="42" x2="600" y2="42" stroke="#b7b3a9" stroke-width="1" opacity="0.03"/>
<line x1="344" y1="300" x2="469" y2="300" stroke="#b7b3a9" stroke-width="1" opacity="0.03"/>
<line x1="585" y1="405" x2="748" y2="405" stroke="#b7b3a9" stroke-width="1" opacity="0.03"/>
<line x1="662" y1="666" x2="782" y2="666" stroke="#b7b3a9" stroke-width="1" opacity="0.03"/>
<line x1="218" y1="999" x2="282" y2="999" stroke="#b7b3a9" stroke-width="1" opacity="0.03"/>
<line x1="791" y1="313" x2="876" y2="313" stroke="#b7b3a9" stroke-width="1" opacity="0.03"/>
  <ellipse cx="400" cy="870" rx="230" ry="24" fill="#0c0c0b" opacity="0.10"/>

  <!-- left sleeve -->
  <path d="M 236 258 C 200 268 150 320 96 430 C 84 454 90 476 112 490 L 168 522
           C 186 480 224 420 268 372 Z" fill="url(#gc1sleeveL)"/>
  <!-- right sleeve -->
  <path d="M 564 258 C 600 268 650 320 704 430 C 716 454 710 476 688 490 L 632 522
           C 614 480 576 420 532 372 Z" fill="url(#gc1sleeveR)"/>

  <!-- body -->
  <path d="M 268 372
           C 272 300 320 244 400 240
           C 480 244 528 300 532 372
           L 566 824
           C 480 860 320 860 234 824 Z" fill="url(#gc1body)"/>

  <!-- centre fold highlight -->
  <path d="M 400 260 C 396 420 394 620 398 822" stroke="#e5dfd0" stroke-width="10" opacity="0.18" stroke-linecap="round" fill="none"/>

  <!-- fold shadows -->
  <path d="M 300 300 C 296 460 300 660 312 820" stroke="#9b9689" stroke-width="6" opacity="0.20" fill="none"/>
  <path d="M 500 300 C 504 460 500 660 488 820" stroke="#9b9689" stroke-width="6" opacity="0.20" fill="none"/>

  <!-- ribbed crew collar -->
  <path d="M 350 244 C 368 276 432 276 450 244 C 434 296 366 296 350 244 Z" fill="#9b9689"/>
  <path d="M 356 248 C 372 272 428 272 444 248" stroke="#b4b0a6" stroke-width="2" fill="none" opacity="0.6"/>

  <!-- hem rib -->
  <path d="M 236 822 C 320 848 480 848 564 822 L 566 838 C 480 864 320 864 234 838 Z" fill="#9b9689" opacity="0.55"/>

  <!-- sleeve cuffs -->
  <path d="M 108 486 L 172 520 L 160 540 L 98 508 Z" fill="#9b9689" opacity="0.5"/>
  <path d="M 692 486 L 628 520 L 640 540 L 702 508 Z" fill="#9b9689" opacity="0.5"/>

  
</svg>
